<?xml version="1.0" encoding="iso-8859-1"?>
<!-- Generator: Adobe Illustrator 19.0.0, SVG Export Plug-In . SVG Version: 6.00 Build 0)  -->
<svg version="1.1" id="Capa_1" xmlns="http://www.w3.org/2000/svg" xmlns:xlink="http://www.w3.org/1999/xlink" x="0px" y="0px"
	 viewBox="0 0 511.997 511.997" style="enable-background:new 0 0 511.997 511.997;" xml:space="preserve">
<g>
	<g>
		<g>
			<path d="M229.024,151.995c12.865,1.538,25.884,2.254,40.972,2.254c15.087,0,28.106-0.716,40.971-2.254
				c4.113-0.492,7.048-4.225,6.557-8.338c-0.492-4.112-4.22-7.044-8.337-6.557c-12.26,1.466-24.713,2.148-39.191,2.148
				c-14.478,0-26.932-0.683-39.191-2.148c-4.113-0.491-7.845,2.445-8.337,6.557C221.975,147.77,224.911,151.503,229.024,151.995z"/>
			<path d="M360.123,202.456c-4.107,0.543-6.995,4.313-6.453,8.419c0.543,4.105,4.308,6.999,8.418,6.452
				c7.782-1.028,26.458,0.332,33.247,2.029c0.611,0.152,1.223,0.226,1.825,0.226c3.36,0,6.418-2.275,7.27-5.683
				c1.005-4.019-1.438-8.091-5.456-9.096C390.426,202.667,370.052,201.144,360.123,202.456z"/>
			<path d="M451.757,66.502c-3.179-10.582-12.323-18.255-23.296-19.548c-32.595-3.844-64.677,6.292-88.803,27.861
				c-21.285-7.553-44.341-11.593-68.126-11.76c2.189-0.461,4.154-1.876,5.208-4.044l10.845-22.308
				c1.158-2.383,0.974-5.199-0.485-7.41s-3.98-3.493-6.622-3.36l-7.943,0.384l9.436-14.783c1.578-2.472,1.57-5.636-0.019-8.1
				c-1.588-2.464-4.465-3.771-7.37-3.359l-29.416,4.227c-4.1,0.589-6.946,4.391-6.357,8.491c0.589,4.1,4.387,6.943,8.491,6.357
				l13.228-1.901l-8.441,13.226c-1.509,2.364-1.573,5.372-0.166,7.798c1.407,2.426,4.052,3.864,6.85,3.729l9.791-0.474
				l-5.312,10.926c-1.811,3.726-0.259,8.213,3.466,10.024c0.543,0.264,1.102,0.454,1.666,0.579
				c-23.758,0.175-46.787,4.215-68.05,11.759c-24.125-21.569-56.211-31.704-88.803-27.861c-10.973,1.293-20.117,8.966-23.296,19.548
				c-9.83,32.724-4.712,67.219,13.98,95.354c-6.687,15.77-10.176,32.555-10.176,49.803c0,31.503,11.561,57.684,34.36,77.814
				c11.505,10.158,25.606,18.531,42.156,25.058c-0.45,1.185-0.876,2.379-1.278,3.579c-3.849,1.444-7.382,3.702-10.376,6.696
				c-11.388,11.388-11.388,29.918,0,41.307c2.837,2.837,5.884,5.501,9.114,7.985c2.147,7.519,5.233,14.768,9.167,21.597
				c-6.578-0.544-13.264-7.265-16.36-16.533c-8.572-25.656-27.249-43.023-49.958-46.455c-19.348-2.937-38.343,4.964-49.564,20.6
				c-3.281,4.572-4.585,10.148-3.672,15.701c0.913,5.553,3.934,10.417,8.504,13.697c9.437,6.774,22.625,4.606,29.401-4.832
				c2.002-2.789,5.299-4.068,9.033-3.507c3.24,0.489,11.313,3.239,16.294,18.147c8.812,26.375,30.289,44.16,54.72,45.311
				c0.832,0.038,1.663,0.058,2.495,0.058c10.32,0,20.579-3.051,29.969-8.853c0.7,0.485,1.41,0.952,2.12,1.42
				c2.403,11.253,1.62,27.518-0.441,49.628c-1.494,16.036,10.337,30.298,26.376,31.792c0.907,0.084,1.826,0.127,2.731,0.127
				c15.157,0,27.648-11.393,29.056-26.499c1.432-15.368,2.108-26.914,2.132-36.828c0.66,0.011,1.317,0.038,1.98,0.038
				c3.471,0,6.909-0.167,10.315-0.465c-0.019,7.955-0.635,18.027-1.922,31.835c-1.494,16.036,10.336,30.298,26.375,31.792
				c0.907,0.084,1.826,0.127,2.732,0.127c11.249,0,21.615-6.584,26.409-16.773c1.763-3.748,0.154-8.216-3.594-9.979
				c-3.75-1.767-8.217-0.156-9.979,3.594c-2.332,4.956-7.37,8.158-12.836,8.158c-0.445,0-0.898-0.022-1.344-0.063
				c-7.8-0.727-13.555-7.664-12.828-15.464c1.471-15.789,2.091-26.722,1.979-35.548c9.791-2.191,19.168-5.664,27.948-10.364
				c0.492,6.571,0.56,13.931,0.221,22.464c-0.165,4.139,3.057,7.627,7.196,7.792c0.102,0.004,0.203,0.006,0.304,0.006
				c4.004,0,7.328-3.165,7.489-7.202c0.5-12.578,0.158-22.911-1.071-32.067c17.83-13.396,30.727-31.926,36.587-52.455
				c3.229-2.484,6.276-5.149,9.113-7.985c11.388-11.389,11.388-29.918,0-41.307c-2.994-2.994-6.526-5.251-10.376-6.695
				c-0.406-1.213-0.836-2.419-1.291-3.617c8.241-3.252,15.906-6.959,22.927-11.118c35.067-20.777,53.603-52.492,53.603-91.717
				c0-17.249-3.49-34.033-10.176-49.803C456.468,133.721,461.587,99.226,451.757,66.502z M81.344,369.13
				c-1.952,2.717-5.75,3.342-8.468,1.391c-1.316-0.944-2.186-2.346-2.449-3.944c-0.263-1.6,0.113-3.205,1.058-4.522
				c1.748-2.435,3.778-4.586,6.008-6.465c3.357,2.577,6.026,5.8,7.728,9.324C83.791,366.139,82.484,367.541,81.344,369.13z
				 M429.813,146.081c-8.629-14.648-20.208-28.152-34.503-39.987c-0.763-0.632-1.538-1.25-2.312-1.868
				c15.894-12.55,33.176-18.85,47.059-21.995C442.734,97.688,443.235,121.559,429.813,146.081z M426.706,61.85
				c3.903,0.46,7.295,2.684,9.304,5.921c-16.414,3.808-36.953,11.569-55.547,27.325c-7.916-5.249-16.292-9.892-25.048-13.9
				C383.43,59.658,414.005,60.353,426.706,61.85z M113.284,61.85c12.701-1.496,43.277-2.192,71.291,19.347
				c-8.756,4.008-17.133,8.65-25.048,13.9c-18.593-15.757-39.133-23.518-55.547-27.325C105.989,64.535,109.381,62.311,113.284,61.85
				z M99.933,82.232c13.884,3.145,31.166,9.444,47.06,21.995c-0.774,0.619-1.549,1.237-2.312,1.868
				c-14.295,11.835-25.874,25.339-34.503,39.987C96.755,121.559,97.256,97.688,99.933,82.232z M167.506,355.508
				c-5.54-5.54-5.54-14.555,0-20.094c2.684-2.684,6.251-4.162,10.046-4.162c3.795,0,7.363,1.478,10.046,4.162
				c20.408,20.407,54.563,20.733,70.37,13.158c7.067-3.387,15.569-0.39,18.954,6.675s0.391,15.566-6.674,18.952
				c-9.876,4.731-22.557,7.337-35.707,7.337c-5.098,0-10.262-0.384-15.348-1.142c-15.753-2.348-30.319-8.206-42.144-16.786
				c-0.047-0.035-0.095-0.07-0.143-0.104C173.542,361.05,170.387,358.388,167.506,355.508z M176.072,422.884
				c-0.6,0-1.2-0.014-1.794-0.041c-18.191-0.856-34.36-14.627-41.194-35.081c-7.605-22.765-22.309-27.322-28.286-28.227
				c-1.924-0.288-3.82-0.354-5.669-0.231c-1.809-3.99-4.336-7.729-7.449-11.028c4.76-1.225,9.828-1.511,14.939-0.737
				c17.028,2.573,31.224,16.173,37.975,36.378c5.153,15.424,17.312,26.195,30.254,26.803c3.282,0.161,6.554-0.301,9.786-1.359
				c2.724,3.318,5.671,6.481,8.823,9.467C187.819,421.493,181.931,422.884,176.072,422.884z M250.948,484.107
				c-0.685,7.349-6.755,12.891-14.121,12.891c-0.445,0-0.898-0.022-1.343-0.063c-3.779-0.352-7.194-2.154-9.617-5.075
				c-2.423-2.921-3.563-6.61-3.211-10.389c1.615-17.333,2.446-30.993,1.737-42.193c9.063,3.977,18.661,6.728,28.621,8.186
				C253.038,457.161,252.375,468.798,250.948,484.107z M328.093,414.785c-12.259,9.133-26.412,15.079-41.58,17.575
				c-0.142,0.02-0.282,0.046-0.422,0.075c-5.257,0.842-10.633,1.274-16.096,1.274c-18.602,0-36.216-4.954-51.422-14.385
				c-0.072-0.043-0.142-0.088-0.216-0.129c-2.206-1.376-4.361-2.846-6.461-4.41c-10.298-7.672-18.669-17.319-24.586-28.11
				c9.242,4.089,19.244,7.001,29.672,8.556c5.816,0.866,11.724,1.306,17.559,1.306c12.777,0,24.891-2.055,35.475-5.977
				c10.595,3.913,22.769,5.977,35.431,5.977c5.835,0,11.743-0.439,17.56-1.306c10.427-1.555,20.43-4.467,29.671-8.556
				C346.763,397.465,338.391,407.112,328.093,414.785z M372.483,335.414c5.54,5.539,5.54,14.553,0,20.093
				c-2.874,2.874-6.02,5.53-9.377,7.979c-0.063,0.044-0.125,0.09-0.186,0.136c-11.821,8.573-26.379,14.425-42.123,16.773
				c-5.086,0.758-10.25,1.142-15.349,1.142c-6.454,0-12.715-0.629-18.613-1.81c6.198-7.706,8.249-18.298,4.831-28.013
				c17.528,3.72,43.831,0.594,60.724-16.299c2.683-2.684,6.251-4.161,10.046-4.161C366.232,331.253,369.799,332.73,372.483,335.414z
				 M386.704,290.471c-8.25,4.888-17.508,9.103-27.655,12.631c-0.082,0.028-0.164,0.054-0.245,0.084
				c-24.795,8.581-54.908,13.048-88.808,13.048c-7.45,0-14.841-0.222-21.967-0.659c-4.132-0.23-7.691,2.893-7.945,7.027
				c-0.254,4.134,2.892,7.691,7.027,7.945c7.43,0.455,15.13,0.687,22.885,0.687c26.875,0,51.607-2.718,73.5-7.998
				c-0.586,0.501-1.16,1.021-1.712,1.572c-14.764,14.763-41.419,15.924-53.285,10.235c-5.78-2.768-12.281-3.542-18.518-2.252
				c-6.038-1.247-12.515-0.61-18.493,2.253c-11.865,5.688-38.519,4.525-53.283-10.236c-0.554-0.555-1.132-1.077-1.722-1.581
				c4.794,1.152,9.722,2.199,14.814,3.112c4.076,0.74,7.975-1.98,8.706-6.058c0.731-4.077-1.981-7.975-6.058-8.706
				c-11.784-2.114-22.657-4.905-32.625-8.332c-0.263-0.105-0.528-0.196-0.796-0.269c-17.756-6.197-32.56-14.466-44.201-24.745
				c-19.434-17.159-29.288-39.557-29.288-66.57c0-73.679,73.103-133.62,162.958-133.62s162.958,59.941,162.958,133.62
				C432.953,245.772,417.393,272.288,386.704,290.471z"/>
			<path d="M391.789,242.616c-7.09-5.233-25.348-14.404-35.024-16.974c-4.003-1.061-8.11,1.321-9.174,5.324
				c-1.063,4.003,1.321,8.11,5.324,9.174c7.584,2.014,24.335,10.388,29.966,14.544c1.34,0.989,2.9,1.466,4.448,1.466
				c2.3,0,4.57-1.054,6.04-3.046C395.829,249.771,395.122,245.076,391.789,242.616z"/>
			<path d="M177.901,217.327c4.109,0.545,7.876-2.346,8.418-6.452c0.543-4.107-2.346-7.876-6.452-8.419
				c-9.928-1.311-30.302,0.211-38.851,2.348c-4.019,1.005-6.461,5.077-5.457,9.096c0.852,3.408,3.91,5.683,7.27,5.683
				c0.603,0,1.215-0.073,1.825-0.226C151.443,217.657,170.118,216.296,177.901,217.327z"/>
			<path d="M183.226,225.642c-9.675,2.569-27.933,11.74-35.024,16.974c-3.332,2.459-4.04,7.155-1.581,10.487
				c1.471,1.993,3.741,3.048,6.041,3.048c1.547,0,3.107-0.477,4.448-1.467c5.632-4.156,22.383-12.53,29.967-14.544
				c4.003-1.064,6.387-5.171,5.324-9.174C191.336,226.964,187.229,224.581,183.226,225.642z"/>
			<path d="M349.737,174.833c4.071-0.765,6.751-4.685,5.987-8.756c-0.765-4.07-4.69-6.752-8.755-5.986
				c-1.857,0.349-3.685,0.695-5.493,1.039c-21.124,4.01-39.367,7.473-71.481,7.473c-32.115,0-50.358-3.463-71.482-7.473
				c-1.808-0.344-3.635-0.69-5.492-1.039c-4.07-0.763-7.991,1.917-8.755,5.986c-0.765,4.071,1.915,7.991,5.987,8.756
				c1.847,0.347,3.665,0.692,5.463,1.033c0.634,0.12,1.265,0.24,1.895,0.359c-0.491,0.997-0.774,2.116-0.774,3.303v10.899
				c0,4.143,3.358,7.5,7.5,7.5c4.142,0,7.5-3.357,7.5-7.5v-10.899c0-0.239-0.014-0.474-0.036-0.707
				c16.118,2.762,33.033,4.782,58.194,4.782s42.075-2.019,58.193-4.782c-0.022,0.233-0.036,0.469-0.036,0.707v10.899
				c0,4.143,3.358,7.5,7.5,7.5c4.142,0,7.5-3.357,7.5-7.5v-10.899c0-1.187-0.283-2.305-0.774-3.303
				c0.63-0.119,1.261-0.239,1.895-0.359C346.072,175.525,347.89,175.179,349.737,174.833z"/>
			<path d="M269.995,193.489c-8.801,0-17.172,3.811-22.964,10.458c-2.722,3.122-2.396,7.86,0.726,10.582
				c3.122,2.72,7.859,2.395,10.582-0.727c2.943-3.377,7.192-5.313,11.657-5.313c4.464,0,8.713,1.936,11.656,5.313
				c1.483,1.701,3.564,2.572,5.657,2.572c1.748,0,3.504-0.607,4.925-1.846c3.123-2.722,3.448-7.46,0.726-10.582
				C287.167,197.301,278.796,193.489,269.995,193.489z"/>
		</g>
	</g>
</g>
<g>
</g>
<g>
</g>
<g>
</g>
<g>
</g>
<g>
</g>
<g>
</g>
<g>
</g>
<g>
</g>
<g>
</g>
<g>
</g>
<g>
</g>
<g>
</g>
<g>
</g>
<g>
</g>
<g>
</g>
</svg>
